:SAMPLES-PER-SECOND 30
:FULLY-SPECIFIED
:DEGREES
61
root  -5.4825 38.144 5.19033 25.0837 -77.8083 -30.2989
RightUpLeg  -23.7152 -15.6807 9.30872
RightLeg  20.6749 1.47017 0.375473
RightFoot  5.07381 0.353416 -2.21989
RightToes  0.00048216 0.542163 -0.142577
Spine  14.868 -3.38717 9.88075
Spine1  14.5336 -2.78941 1.45296
HEad  8.64735 11.7029 -7.99602
LeftShoulder1  7.60313 -12.2317 -41.9427
LeftArm  -17.7131 2.66897 -25.338
LeftForeArm  21.7808 -34.3389 -6.39828
LeftHand  -0.25398 0.0180481 5.50724
RightShoulder  4.80839 8.80572 33.1202
RightArm  -13.3303 2.48753 27.3114
RightForeArm  9.18404 6.01592 5.54286
RightHand  -1.00492 1.69072 -16.5918
LeftUpLeg  16.2204 6.34662 3.17596
LeftLeg  30.5688 0.725968 0.808019
LeftFoot  -16.728 -0.182783 -6.13869
LeftToes  1.06244e-005 4.65856e-005 -8.18505e-006
62
root  -6.67554 38.2236 5.44977 24.3485 -75.9159 -29.2029
RightUpLeg  -23.4354 -16.0365 9.29293
RightLeg  23.4882 0.396912 -0.04933
RightFoot  2.22985 0.4194 -3.39084
RightToes  0.00048216 0.542163 -0.142577
Spine  15.5852 -4.018 11.0203
Spine1  13.5648 -3.37725 2.50577
HEad  9.53253 11.5029 -7.97514
LeftShoulder1  7.49737 -12.1907 -41.432
LeftArm  -17.3338 2.78955 -26.9895
LeftForeArm  24.9496 -38.1696 -7.25393
LeftHand  -0.25398 0.0180481 5.50724
RightShoulder  4.73042 8.67934 32.8861
RightArm  -15.6813 5.47945 27.5735
RightForeArm  4.83813 7.46021 5.49882
RightHand  -1.14795 2.44972 -17.1472
LeftUpLeg  10.8266 5.70508 4.66828
LeftLeg  40.5794 0.275629 0.648816
LeftFoot  -6.17136 0.341698 -7.15643
LeftToes  1.06244e-005 4.65856e-005 -8.18505e-006
63
root  -7.78774 38.2645 5.6942 23.8452 -73.914 -28.4017
RightUpLeg  -23.0404 -16.5493 9.3409
RightLeg  25.9259 -0.600848 -0.555763
RightFoot  -0.491205 0.34286 -3.61408
RightToes  0.00048216 0.542163 -0.142577
Spine  16.1375 -4.4811 12.5293
Spine1  12.8089 -3.59432 3.25835
HEad  10.2632 10.4063 -7.19318
LeftShoulder1  7.472 -12.2815 -41.0241
LeftArm  -16.6577 2.6823 -28.8192
LeftForeArm  27.6118 -40.5693 -7.79877
LeftHand  -0.25398 0.0180481 5.50724
RightShoulder  4.64336 8.52055 32.6752
RightArm  -16.7944 7.92271 28.233
RightForeArm  0.629765 9.88455 5.74167
RightHand  -1.28962 3.12316 -17.7497
LeftUpLeg  4.20661 5.05331 6.00269
LeftLeg  50.6278 0.57219 1.21903
LeftFoot  4.38158 0.844514 -6.30826
LeftToes  1.06244e-005 4.65856e-005 -8.18505e-006
64
root  -8.91275 38.3685 5.96081 22.8054 -72.6591 -27.5044
RightUpLeg  -21.4737 -17.2871 8.87337
RightLeg  27.3867 -1.08631 -0.854971
RightFoot  -3.10146 0.170756 -2.64608
RightToes  0.00048216 0.542163 -0.142577
Spine  16.5544 -4.54002 13.8596
Spine1  12.6445 -3.2457 3.2867
HEad  10.5714 8.77693 -6.25368
LeftShoulder1  7.6013 -12.5474 -41.0441
LeftArm  -15.8058 2.49393 -30.3189
LeftForeArm  29.0887 -41.6776 -8.04929
LeftHand  -0.25398 0.0180481 5.50724
RightShoulder  4.61262 8.5075 32.4615
RightArm  -15.7757 10.1094 29.0125
RightForeArm  -3.5911 13.0723 5.98208
RightHand  -1.45113 3.6871 -18.7208
LeftUpLeg  -1.67377 5.38177 6.92217
LeftLeg  58.6234 1.24761 2.76493
LeftFoot  8.34867 0.894953 -5.42549
LeftToes  1.06244e-005 4.65856e-005 -8.18505e-006
65
root  -10.1359 38.6399 6.24799 20.2021 -72.3487 -25.1598
RightUpLeg  -18.6281 -18.089 7.52464
RightLeg  27.3129 -0.82957 -0.720881
RightFoot  -5.27212 0.0512151 -1.66357
RightToes  0.00048216 0.542163 -0.142577
Spine  16.6427 -4.13013 14.0413
Spine1  12.8525 -2.64416 2.96428
HEad  10.6861 7.31852 -5.64704
LeftShoulder1  7.78237 -12.8304 -41.3154
LeftArm  -14.6504 2.83321 -31.377
LeftForeArm  29.8338 -41.5525 -7.96311
LeftHand  -0.25398 0.0180481 5.50724
RightShoulder  4.64636 8.64042 32.3185
RightArm  -12.9567 12.4812 29.8811
RightForeArm  -6.55341 16.1304 5.94984
RightHand  -1.62298 4.19438 -19.8135
LeftUpLeg  -6.54412 6.89146 6.96542
LeftLeg  63.3971 1.8308 4.58936
LeftFoot  6.16582 0.672995 -4.60432
LeftToes  1.06244e-005 4.65856e-005 -8.18505e-006
66
root  -11.3885 38.9623 6.54532 16.9942 -72.1966 -21.9139
RightUpLeg  -15.6856 -18.8234 5.84993
RightLeg  26.5497 -0.389504 -0.398207
RightFoot  -6.91251 0.00674919 -1.40348
RightToes  0.00048216 0.542163 -0.142577
Spine  16.4014 -3.60051 13.6658
Spine1  12.9324 -2.09959 2.63795
HEad  10.8522 6.16222 -5.26384
LeftShoulder1  7.88049 -12.9709 -41.4927
LeftArm  -13.1912 4.00632 -32.1574
LeftForeArm  30.6448 -40.3486 -7.54201
LeftHand  -0.25398 0.0180481 5.50724
RightShoulder  4.6702 8.70597 32.3086
RightArm  -9.46684 15.0463 31.0385
RightForeArm  -6.98805 18.4305 5.70218
RightHand  -1.73827 4.56923 -20.4133
LeftUpLeg  -11.1254 8.67002 6.393
LeftLeg  64.6056 1.93679 5.11347
LeftFoot  2.71401 0.486109 -4.08524
LeftToes  1.06244e-005 4.65856e-005 -8.18505e-006
67
root  -12.6223 39.2384 6.86609 14.0312 -71.7888 -18.7417
RightUpLeg  -12.8442 -19.1284 4.04758
RightLeg  25.6472 -0.609831 -0.033342
RightFoot  -8.4007 -0.0271705 -1.1262
RightToes  0.00048216 0.542163 -0.142577
Spine  16.079 -3.13868 13.4642
Spine1  12.7165 -1.59115 2.18364
HEad  10.9982 4.94261 -4.84846
LeftShoulder1  7.97187 -13.0303 -41.8481
LeftArm  -11.5658 5.67223 -32.4093
LeftForeArm  31.6174 -38.3698 -6.90455
LeftHand  -0.25398 0.0180481 5.50724
RightShoulder  4.62126 8.58963 32.2713
RightArm  -6.03418 17.3451 32.58
RightForeArm  -5.74943 20.3205 5.38048
RightHand  -1.74926 4.68307 -20.3138
LeftUpLeg  -15.506 10.1424 5.53007
LeftLeg  62.7312 1.63828 4.09301
LeftFoot  1.05586 0.398418 -3.72912
LeftToes  1.06244e-005 4.65856e-005 -8.18505e-006
68
root  -13.8464 39.4733 7.21416 11.1036 -71.3636 -15.7364
RightUpLeg  -9.5864 -18.694 2.03948
RightLeg  24.354 -1.54326 0.366339
RightFoot  -9.9232 -0.0646978 -0.153748
RightToes  0.00048216 0.542163 -0.142577
Spine  15.8911 -2.62511 13.3218
Spine1  12.5193 -0.989198 1.511
HEad  10.9851 3.47921 -4.41784
LeftShoulder1  8.20753 -13.173 -42.776
LeftArm  -9.83091 7.3188 -31.858
LeftForeArm  31.9853 -35.6462 -6.14358
LeftHand  -0.25398 0.0180481 5.50724
RightShoulder  4.52241 8.43883 31.925
RightArm  -3.09463 18.954 34.3214
RightForeArm  -4.50888 22.4255 5.19512
RightHand  -1.68067 4.51322 -19.8632
LeftUpLeg  -19.0686 11.6395 4.41135
LeftLeg  58.2918 1.38014 2.94824
LeftFoot  -0.0493832 0.32698 -3.30393
LeftToes  1.06244e-005 4.65856e-005 -8.18505e-006
69
root  -15.0608 39.6718 7.58416 8.44894 -71.1031 -13.0503
RightUpLeg  -6.20611 -17.5097 0.194023
RightLeg  22.726 -2.95799 0.678343
RightFoot  -11.1996 -0.0776279 0.729272
RightToes  0.00048216 0.542163 -0.142577
Spine  15.7552 -2.01739 13.1788
Spine1  12.4771 -0.25559 0.630512
HEad  10.8788 1.93318 -3.9448
LeftShoulder1  8.50232 -13.3992 -43.7789
LeftArm  -7.92167 8.85919 -31.0421
LeftForeArm  30.8738 -31.9047 -5.2711
LeftHand  -0.25398 0.0180481 5.50724
RightShoulder  4.45056 8.43256 31.3402
RightArm  -0.969628 19.8322 35.9774
RightForeArm  -3.66755 24.7535 5.46713
RightHand  -1.58074 4.1183 -19.4616
LeftUpLeg  -21.4426 13.6903 3.12184
LeftLeg  51.0643 1.67141 2.64187
LeftFoot  -1.70453 0.278242 -3.18412
LeftToes  1.06244e-005 4.65856e-005 -8.18505e-006
70
root  -16.2587 39.8329 7.98974 6.66473 -71.0211 -11.0097
RightUpLeg  -3.26926 -15.9235 -1.18513
RightLeg  21.0518 -4.65704 0.895028
RightFoot  -12.073 -0.0780772 0.667696
RightToes  0.00048216 0.542163 -0.142577
Spine  15.5472 -1.41401 13.3081
Spine1  12.2997 0.608704 -0.688719
HEad  10.802 0.462603 -3.17954
LeftShoulder1  8.62972 -13.5655 -44.0139
LeftArm  -5.7875 10.5424 -30.7465
LeftForeArm  28.0046 -27.2197 -4.31926
LeftHand  -0.25398 0.0180481 5.50724
RightShoulder  4.46311 8.5623 31.0396
RightArm  0.932121 20.2402 37.3686
RightForeArm  -3.12055 26.8865 5.94992
RightHand  -1.47686 3.62057 -19.1791
LeftUpLeg  -22.6474 16.4226 1.64366
LeftLeg  40.5335 2.52643 2.66847
LeftFoot  -2.16066 0.273255 -3.2456
LeftToes  1.06244e-005 4.65856e-005 -8.18505e-006
71
root  -17.4394 39.9551 8.44276 5.4345 -71.1363 -9.39864
RightUpLeg  -0.51443 -14.583 -2.3722
RightLeg  19.2516 -5.81217 1.22398
RightFoot  -12.8837 -0.079038 0.566682
RightToes  0.00048216 0.542163 -0.142577
Spine  15.4526 -0.893835 13.6064
Spine1  12.0065 1.56305 -2.4629
HEad  10.6988 -0.870343 -2.1469
LeftShoulder1  8.58418 -13.623 -43.6137
LeftArm  -4.37117 12.4101 -30.8603
LeftForeArm  24.7274 -22.1232 -3.74983
LeftHand  -0.25398 0.0180481 5.50724
RightShoulder  4.55705 8.72039 31.3322
RightArm  2.76609 20.5441 38.4377
RightForeArm  -2.17027 28.4179 6.2657
RightHand  -1.3799 3.21104 -18.7708
LeftUpLeg  -22.7498 19.9782 -0.34896
LeftLeg  27.2575 2.45918 2.04
LeftFoot  -0.416886 0.291099 -3.01864
LeftToes  1.06244e-005 4.65856e-005 -8.18505e-006
72
root  -18.6337 39.9661 8.94945 4.32897 -71.4015 -8.23777
RightUpLeg  2.46536 -13.927 -3.57928
RightLeg  17.805 -5.72221 1.58546
RightFoot  -14.1379 -0.0554547 1.59573
RightToes  0.00048216 0.542163 -0.142577
Spine  15.6386 -0.490165 13.7655
Spine1  12.1346 2.44286 -3.96552
HEad  10.469 -1.925 -1.30008
LeftShoulder1  8.55285 -13.6504 -43.3721
LeftArm  -6.38063 14.1999 -30.7117
LeftForeArm  24.503 -16.8305 -4.52781
LeftHand  -0.25398 0.0180481 5.50724
RightShoulder  4.67685 8.87532 31.8374
RightArm  4.22911 21.0154 39.3536
RightForeArm  -0.216752 29.0958 6.32759
RightHand  -1.27719 2.93114 -17.9704
LeftUpLeg  -21.3259 20.5096 -0.905208
LeftLeg  13.616 3.87888 -0.125645
LeftFoot  1.75558 0.340159 -3.04946
LeftToes  1.06244e-005 4.65856e-005 -8.18505e-006
73
root  -19.8794 39.825 9.52734 3.36708 -71.6544 -7.7516
RightUpLeg  5.58543 -14.181 -4.74611
RightLeg  17.4554 -4.75037 1.53452
RightFoot  -15.7264 -0.00156301 2.78361
RightToes  0.00048216 0.542163 -0.142577
Spine  15.8236 -0.192369 13.5974
Spine1  12.8747 3.00011 -4.55151
HEad  10.2191 -2.53463 -0.830807
LeftShoulder1  8.58131 -13.7021 -43.3866
LeftArm  -9.70132 15.8173 -30.4616
LeftForeArm  25.6545 -11.5235 -5.31461
LeftHand  -0.25398 0.0180481 5.50724
RightShoulder  4.77487 9.04109 32.1208
RightArm  5.46553 21.6742 40.3544
RightForeArm  2.44449 28.8367 6.12208
RightHand  -1.11892 2.45501 -16.7015
LeftUpLeg  -17.9382 9.73685 3.9225
LeftLeg  2.94104 15.8141 -4.742
LeftFoot  3.05886 0.376124 -3.11576
LeftToes  1.06244e-005 4.65856e-005 -8.18505e-006
74
root  -21.1748 39.5794 10.179 1.77132 -71.6021 -6.79731
RightUpLeg  8.44503 -15.228 -6.16651
RightLeg  18.358 -3.59828 0.808068
RightFoot  -17.4917 0.0565831 3.27317
RightToes  0.00048216 0.542163 -0.142577
Spine  15.8227 -0.0619625 12.7024
Spine1  13.8536 3.08767 -4.40266
HEad  10.1399 -2.74797 -0.338885
LeftShoulder1  8.56753 -13.7483 -43.1897
LeftArm  -10.8729 17.4686 -30.564
LeftForeArm  25.4296 -6.91155 -5.26665
LeftHand  -0.25398 0.0180481 5.50724
RightShoulder  4.86984 9.1888 32.4261
RightArm  6.53456 22.3053 41.3407
RightForeArm  5.08352 27.7867 5.72917
RightHand  -0.898133 1.51039 -15.2255
LeftUpLeg  -16.9391 6.03563 4.76427
LeftLeg  -0.570119 20.0512 -6.42988
LeftFoot  4.27046 0.198301 -1.66872
LeftToes  1.06244e-005 4.65856e-005 -8.18505e-006
